<mxfile host="65bd71144e">
    <diagram id="YcYUrngqRyG1B-8piv1N" name="Page-1">
        <mxGraphModel dx="2217" dy="762" grid="1" gridSize="10" guides="1" tooltips="1" connect="1" arrows="1" fold="1" page="1" pageScale="1" pageWidth="850" pageHeight="1100" math="0" shadow="0">
            <root>
                <mxCell id="0"/>
                <mxCell id="1" parent="0"/>
                <mxCell id="2" value="ユーザー" style="shape=umlActor;verticalLabelPosition=bottom;verticalAlign=top;html=1;" parent="1" vertex="1">
                    <mxGeometry x="-290" y="310" width="30" height="60" as="geometry"/>
                </mxCell>
                <mxCell id="3" value="ねこを飼い始める" style="ellipse;whiteSpace=wrap;html=1;" parent="1" vertex="1">
                    <mxGeometry x="-90" y="150" width="140" height="70" as="geometry"/>
                </mxCell>
                <mxCell id="4" value="ねこに餌をあげる" style="ellipse;whiteSpace=wrap;html=1;" parent="1" vertex="1">
                    <mxGeometry x="-90" y="250" width="140" height="70" as="geometry"/>
                </mxCell>
                <mxCell id="5" value="ねことお別れする" style="ellipse;whiteSpace=wrap;html=1;" parent="1" vertex="1">
                    <mxGeometry x="-90" y="570" width="140" height="70" as="geometry"/>
                </mxCell>
                <mxCell id="6" value="ねこと遊ぶ" style="ellipse;whiteSpace=wrap;html=1;" parent="1" vertex="1">
                    <mxGeometry x="-90" y="320" width="140" height="70" as="geometry"/>
                </mxCell>
                <mxCell id="8" value="掃除をする" style="ellipse;whiteSpace=wrap;html=1;" parent="1" vertex="1">
                    <mxGeometry x="-90" y="390" width="140" height="70" as="geometry"/>
                </mxCell>
                <mxCell id="9" value="動物病院に連れていく" style="ellipse;whiteSpace=wrap;html=1;" parent="1" vertex="1">
                    <mxGeometry x="-90" y="460" width="140" height="70" as="geometry"/>
                </mxCell>
                <mxCell id="11" value="ねこ" style="ellipse;shape=umlEntity;whiteSpace=wrap;html=1;" vertex="1" parent="1">
                    <mxGeometry x="170" y="300" width="80" height="80" as="geometry"/>
                </mxCell>
                <mxCell id="12" value="アイテム" style="ellipse;shape=umlEntity;whiteSpace=wrap;html=1;" vertex="1" parent="1">
                    <mxGeometry x="170" y="440" width="80" height="80" as="geometry"/>
                </mxCell>
                <mxCell id="14" value="" style="endArrow=none;html=1;" edge="1" parent="1" source="9" target="12">
                    <mxGeometry width="50" height="50" relative="1" as="geometry">
                        <mxPoint x="330" y="400" as="sourcePoint"/>
                        <mxPoint x="380" y="350" as="targetPoint"/>
                    </mxGeometry>
                </mxCell>
                <mxCell id="15" value="ユーザー" style="shape=umlActor;verticalLabelPosition=bottom;verticalAlign=top;html=1;" vertex="1" parent="1">
                    <mxGeometry x="330" y="170" width="30" height="60" as="geometry"/>
                </mxCell>
            </root>
        </mxGraphModel>
    </diagram>
</mxfile>